<svg width="24" height="25" viewBox="0 0 24 25" fill="none" xmlns="http://www.w3.org/2000/svg">
<path d="M21.6 12.5C21.5997 10.6654 21.0738 8.86939 20.0844 7.32446C19.0951 5.77954 17.6838 4.55043 16.0177 3.78266C14.3515 3.01488 12.5003 2.74059 10.6831 2.99225C8.86587 3.24391 7.15883 4.01099 5.76404 5.20267C4.36924 6.39435 3.34511 7.96073 2.81288 9.71638C2.28065 11.472 2.2626 13.3434 2.76089 15.109C3.25918 16.8746 4.25292 18.4604 5.62448 19.6787C6.99605 20.8971 8.68798 21.6969 10.5 21.9836L10.5 15.275H8.06279V12.5H10.5V10.385C10.5 7.97898 11.9334 6.64998 14.1258 6.64998C14.8458 6.65997 15.5641 6.72254 16.275 6.83718V9.19998H15.0642C14.8579 9.17258 14.648 9.19196 14.4502 9.25668C14.2524 9.32141 14.0717 9.42982 13.9214 9.57388C13.7712 9.71794 13.6553 9.89396 13.5824 10.0889C13.5094 10.2838 13.4813 10.4927 13.5 10.7V12.5H16.1628L15.7368 15.275H13.5L13.5 21.9836C15.7583 21.6263 17.8149 20.4748 19.2998 18.7363C20.7847 16.9978 21.6004 14.7863 21.6 12.5Z" fill="#2E6FE8"/>
</svg>
