<svg width="36" height="37" viewBox="0 0 36 37" fill="none" xmlns="http://www.w3.org/2000/svg">
<path d="M13.5703 9.82934C14.2108 9.18888 15.2492 9.18888 15.8897 9.82934L21.29 15.2297L14.73 21.7897L8.16998 15.2297L13.5703 9.82934Z" fill="#636AE8"/>
<path d="M26.6607 9.82934C27.3011 9.18888 28.3395 9.18888 28.98 9.82934L33.2207 14.0701C33.8611 14.7105 33.8611 15.7489 33.2207 16.3893L27.8203 21.7897L21.2603 15.2297L26.6607 9.82934Z" fill="#E8618C"/>
<path d="M8.1797 15.2103L14.7397 21.7703L9.33935 27.1707C8.69888 27.8111 7.66052 27.8111 7.02006 27.1707L2.77936 22.93C2.1389 22.2896 2.1389 21.2511 2.77936 20.6107L8.1797 15.2103Z" fill="#22CCB2"/>
<path d="M21.27 15.2103L27.83 21.7703L22.4296 27.1707C21.7892 27.8111 20.7508 27.8111 20.1103 27.1707L14.71 21.7703L21.27 15.2103Z" fill="#7F55E0"/>
</svg>
