<svg width="24" height="25" viewBox="0 0 24 25" fill="none" xmlns="http://www.w3.org/2000/svg">
<path d="M21.6 6.56001C20.88 6.86001 20.16 7.10001 19.32 7.16001C20.16 6.68001 20.76 5.90001 21.06 5.00001C20.28 5.48001 19.44 5.78001 18.54 5.96001C17.82 5.18001 16.8 4.70001 15.72 4.70001C13.56 4.70001 11.76 6.44001 11.76 8.66001C11.76 8.96001 11.82 9.26001 11.88 9.56001C8.58 9.38001 5.7 7.82001 3.72 5.42001C3.36 6.02001 3.18 6.68001 3.18 7.40001C3.18 8.78001 3.9 9.98001 4.92 10.7C4.26 10.7 3.66 10.52 3.12 10.22V10.28C3.12 12.2 4.5 13.76 6.3 14.12C5.94 14.18 5.64 14.24 5.28 14.24C5.04 14.24 4.8 14.24 4.56 14.18C5.04 15.74 6.54 16.88 8.22 16.94C6.9 18.02 5.16 18.62 3.3 18.62C3 18.62 2.64 18.62 2.34 18.56C4.14 19.64 6.24 20.3 8.46 20.3C15.72 20.3 19.68 14.3 19.68 9.08001C19.68 8.90001 19.68 8.72001 19.68 8.60001C20.4 8.00001 21.06 7.34001 21.6 6.56001Z" fill="#2EBAE8"/>
</svg>
