<svg width="24" height="25" viewBox="0 0 24 25" fill="none" xmlns="http://www.w3.org/2000/svg">
<path d="M21.42 8.65997C21.42 8.65997 21.24 7.33997 20.64 6.73997C19.92 5.95997 19.08 5.95997 18.72 5.89997C16.02 5.71997 12 5.71997 12 5.71997C12 5.71997 7.98002 5.71997 5.28002 5.89997C4.92002 5.95997 4.08002 5.95997 3.36002 6.73997C2.76002 7.33997 2.58002 8.65997 2.58002 8.65997C2.58002 8.65997 2.40002 10.22 2.40002 11.78L2.40002 13.22C2.40002 14.78 2.58002 16.34 2.58002 16.34C2.58002 16.34 2.76002 17.66 3.36002 18.26C4.08002 19.04 5.04002 18.98 5.46002 19.1C7.02002 19.22 12 19.28 12 19.28C12 19.28 16.02 19.28 18.72 19.1C19.08 19.04 19.92 19.04 20.64 18.26C21.24 17.66 21.42 16.34 21.42 16.34C21.42 16.34 21.6 14.78 21.6 13.22L21.6 11.78C21.6 10.22 21.42 8.65997 21.42 8.65997ZM10.02 15.02L10.02 9.61997L15.18 12.32L10.02 15.02Z" fill="#E82E2E"/>
</svg>
